<svg xmlns="http://www.w3.org/2000/svg" xmlns:xlink="http://www.w3.org/1999/xlink" width="730" height="422" viewBox="0 0 730 422">
  <defs>
    <style>
      .cls-1 {
        clip-path: url(#clip-Artboard_1);
      }

      .cls-2, .cls-3, .cls-7 {
        fill: #fff;
      }

      .cls-3 {
        stroke: #707070;
      }

      .cls-4, .cls-5 {
        stroke: none;
      }

      .cls-5 {
        fill: #707070;
      }

      .cls-6 {
        fill: none;
      }
    </style>
    <clipPath id="clip-Artboard_1">
      <rect width="730" height="422"/>
    </clipPath>
  </defs>
  <g id="Artboard_1" data-name="Artboard – 1" class="cls-1">
    <rect class="cls-7" width="730" height="422"/>
    <g id="Path_1" data-name="Path 1" class="cls-2" transform="translate(40 50)">
      <path class="cls-4" d="M 100 299.5 C 93.24873352050781 299.5 86.50184631347656 298.8198852539062 79.94676971435547 297.4784851074219 C 73.55850219726562 296.1712646484375 67.27484893798828 294.2207336425781 61.27026748657227 291.6809997558594 C 55.37457656860352 289.1873474121094 49.68815231323242 286.1008605957031 44.36896133422852 282.5072631835938 C 39.10015487670898 278.9477233886719 34.14557647705078 274.8598327636719 29.64288520812988 270.3571166992188 C 25.14019203186035 265.8544311523438 21.05226898193359 260.8998413085938 17.49273109436035 255.6310729980469 C 13.89915370941162 250.3118438720703 10.81265354156494 244.6254272460938 8.319000244140625 238.729736328125 C 5.779269218444824 232.7251892089844 3.828730821609497 226.4414978027344 2.521500110626221 220.0532684326172 C 1.180115342140198 213.4981536865234 0.5 206.7512664794922 0.5 200 L 0.5 0.5 L 59.5 0.5 L 59.5 190 C 59.5 214.8235321044922 74.64896392822266 240.5 100 240.5 C 125.3510360717773 240.5 140.5 214.8235321044922 140.5 190 L 140.5 0.5 L 199.5 0.5 L 199.5 200 C 199.5 206.7512664794922 198.8198852539062 213.4981536865234 197.4785003662109 220.0532684326172 C 196.1712646484375 226.4414978027344 194.2207336425781 232.7251892089844 191.6809997558594 238.729736328125 C 189.1873474121094 244.6254272460938 186.1008453369141 250.3118438720703 182.5072631835938 255.6310729980469 C 178.9477233886719 260.8998413085938 174.8598480224609 265.8544311523438 170.3571166992188 270.3571166992188 C 165.8544158935547 274.8598327636719 160.8998413085938 278.9477233886719 155.6310729980469 282.5072631835938 C 150.3118438720703 286.1008605957031 144.6254272460938 289.1873474121094 138.729736328125 291.6809997558594 C 132.7251892089844 294.2207336425781 126.4414978027344 296.1712646484375 120.0532684326172 297.4784851074219 C 113.4981536865234 298.8198852539062 106.7512664794922 299.5 100 299.5 Z"/>
      <path class="cls-5" d="M 1 1 L 1 200 C 1 206.7176818847656 1.676727294921875 213.4308471679688 3.0113525390625 219.9530029296875 C 4.311965942382812 226.3089294433594 6.252655029296875 232.5607604980469 8.779495239257812 238.5349578857422 C 11.26057434082031 244.40087890625 14.33154296875 250.0586853027344 17.90704345703125 255.3511505126953 C 21.44877624511719 260.5935668945312 25.5162353515625 265.5233459472656 29.99642944335938 270.0035705566406 C 34.47660827636719 274.4837646484375 39.40641784667969 278.5512390136719 44.64884948730469 282.0929565429688 C 49.94131469726562 285.66845703125 55.59907531738281 288.7394104003906 61.46504211425781 291.2204895019531 C 67.43919372558594 293.7473449707031 73.69107818603516 295.6880493164062 80.04695892333984 296.9886474609375 C 86.56915283203125 298.3232727050781 93.28231048583984 299 100 299 C 106.7176895141602 299 113.4308471679688 298.3232727050781 119.9530410766602 296.9886474609375 C 126.3089218139648 295.6880493164062 132.5608062744141 293.7473449707031 138.5349578857422 291.2204895019531 C 144.4009246826172 288.7394104003906 150.0586853027344 285.66845703125 155.3511505126953 282.0929565429688 C 160.5935821533203 278.5512390136719 165.5233764648438 274.4837646484375 170.0035705566406 270.0035705566406 C 174.4837646484375 265.5233459472656 178.5512390136719 260.5935668945312 182.0929565429688 255.3511505126953 C 185.66845703125 250.0586853027344 188.7394256591797 244.40087890625 191.2205047607422 238.5349578857422 C 193.7473449707031 232.5607604980469 195.6880340576172 226.3089294433594 196.9886474609375 219.9530029296875 C 198.3232727050781 213.4308471679688 199 206.7176818847656 199 200 L 199 1 L 141 1 L 141 190 C 141 215.0693054199219 125.6640014648438 241 100 241 C 74.33599853515625 241 59 215.0693054199219 59 190 L 59 1 L 1 1 M 0 0 L 60 0 C 60 0 60 165 60 190 C 60 215 75 240 100 240 C 125 240 140 215 140 190 C 140 165 140 0 140 0 L 200 0 L 200 200 C 200 255.2284545898438 155.2285003662109 300 100 300 C 44.77149963378906 300 0 255.2284545898438 0 200 L 0 0 Z"/>
    </g>
    <g id="Path_2" data-name="Path 2" class="cls-2" transform="translate(280 50)">
      <path class="cls-4" d="M 100 299.5 L 0.5 299.5 L 0.5 0.5 L 100 0.5 C 114.2415390014648 0.5 127.3003845214844 1.825461506843567 138.8138122558594 4.439615249633789 C 151.1260833740234 7.235115528106689 161.7655792236328 11.53073120117188 170.4368438720703 17.20707702636719 C 189.7217254638672 29.83134651184082 199.5 49.27565383911133 199.5 75 C 199.5 86.81822967529297 198.0610809326172 97.72991943359375 195.2232360839844 107.4320373535156 C 192.5977630615234 116.407958984375 188.8130340576172 124.2491149902344 183.9741973876953 130.7376556396484 C 179.4288787841797 136.8325347900391 174.0952758789062 141.5613098144531 168.1215057373047 144.7926940917969 C 165.2519989013672 146.3448486328125 162.2506866455078 147.5318450927734 159.2009582519531 148.3207244873047 C 156.1757659912109 149.1032257080078 153.0801086425781 149.5 150 149.5 L 150 150.5 C 156.4526977539062 150.5 162.5589294433594 151.8140411376953 168.1490783691406 154.4056549072266 C 174.2158050537109 157.2181854248047 179.5430755615234 161.4888916015625 183.9829254150391 167.0990447998047 C 188.8458862304688 173.2438812255859 192.6273040771484 180.9884948730469 195.2221984863281 190.1178131103516 C 198.0607299804688 200.1045074462891 199.5 211.8405456542969 199.5 225 C 199.5 250.7243499755859 189.7217254638672 270.1686401367188 170.4368438720703 282.7929382324219 C 161.7655792236328 288.4692687988281 151.1260833740234 292.764892578125 138.8138122558594 295.5603942871094 C 127.3003845214844 298.1745300292969 114.2415390014648 299.5 100 299.5 Z"/>
      <path class="cls-5" d="M 1 1 L 1 299 L 100 299 C 114.204345703125 299 127.225959777832 297.6786804199219 138.7031097412109 295.07275390625 C 150.9570770263672 292.2904968261719 161.5417327880859 288.0181884765625 170.1629943847656 282.3745727539062 C 189.2978515625 269.8485412597656 199 250.5449523925781 199 225 C 199 211.8868103027344 197.5671539306641 200.1967315673828 194.7412261962891 190.2545013427734 C 192.1644287109375 181.1886596679688 188.4128875732422 173.5024261474609 183.5908508300781 167.4093017578125 C 179.1999969482422 161.861083984375 173.9338836669922 157.6386108398438 167.9387664794922 154.8592681884766 C 162.4150085449219 152.2984619140625 156.3795013427734 151 150 151 L 150 149 C 153.0378875732422 149 156.0914306640625 148.6085815429688 159.0757293701172 147.8366546630859 C 162.0863037109375 147.0579223632812 165.0496978759766 145.8858032226562 167.8836059570312 144.3528900146484 C 173.7930450439453 141.1563415527344 179.0718383789062 136.4749603271484 183.5733795166016 130.4387359619141 C 188.3765411376953 123.9980773925781 192.1346588134766 116.2102661132812 194.7433471679688 107.2916564941406 C 197.5678405761719 97.63514709472656 199 86.77069091796875 199 75 C 199 49.45503234863281 189.2978515625 30.15142822265625 170.1629943847656 17.62542724609375 C 161.5417327880859 11.9818115234375 150.9570770263672 7.709503173828125 138.7031097412109 4.92718505859375 C 127.225959777832 2.321319580078125 114.204345703125 1 100 1 L 1 1 M 0 0 L 100 0 C 155.2285003662109 0 200 19.76998901367188 200 75 C 200 124.4308471679688 175 150 150 150 C 175 150 200 169.7700042724609 200 225 C 200 280.2299499511719 155.2285003662109 300 100 300 L 0 300 L 0 0 Z"/>
    </g>
    <g id="Rectangle_2" data-name="Rectangle 2" class="cls-3" transform="translate(515 50)">
      <rect class="cls-4" width="200" height="300" rx="100"/>
      <rect class="cls-6" x="0.5" y="0.5" width="199" height="299" rx="99.5"/>
    </g>
  </g>
</svg>
