<svg xmlns="http://www.w3.org/2000/svg" xmlns:xlink="http://www.w3.org/1999/xlink" width="730" height="422" viewBox="0 0 730 422">
  <defs>
    <style>
      .cls-1 {
        clip-path: url(#clip-ubcletter);
      }

      .cls-2 {
        fill: #002145;
      }

      .cls-3 {
        fill: #fff;
      }
    </style>
    <clipPath id="clip-ubcletter">
      <rect width="730" height="422"/>
    </clipPath>
  </defs>
  <g id="ubcletter" class="cls-1">
    <rect class="cls-3" width="730" height="422"/>
    <path id="Path_1" data-name="Path 1" class="cls-2" d="M0,0H60V150c0,20.833,15,40,40,40s40-19.167,40-40V0h60V150A100,100,0,0,1,0,150Z" transform="translate(44 86)"/>
    <path id="Subtraction_1" data-name="Subtraction 1" class="cls-2" d="M-35,69H-135V-181H-35a117.917,117.917,0,0,1,36.484,5.312A76.214,76.214,0,0,1,28.125-161a62,62,0,0,1,16.328,22.188A69.26,69.26,0,0,1,50-111a50.9,50.9,0,0,1-4.219,20.469A51.147,51.147,0,0,1,35-74.75C26.39-66.14,15.176-61,5-61a79.418,79.418,0,0,1,22.031,2.969A56.71,56.71,0,0,1,46.25-48.5,46.062,46.062,0,0,1,59.844-31.469C63.265-24.137,65-15.568,65-6a97.1,97.1,0,0,1-2.032,20.449,67.512,67.512,0,0,1-5.827,16.582A56.962,56.962,0,0,1,47.921,44.1,61.139,61.139,0,0,1,35.711,54a79.528,79.528,0,0,1-14.8,7.09A114.293,114.293,0,0,1,3.924,65.719C-7.346,67.927-20.079,69-35,69ZM-75-41V29h45A35.04,35.04,0,0,0,5-6,35.04,35.04,0,0,0-30-41Zm0-100v60h35a30.034,30.034,0,0,0,30-30,30.034,30.034,0,0,0-30-30Z" transform="translate(409 267)"/>
    <path id="Path_3" data-name="Path 3" class="cls-2" d="M100,0c37.114,0,74.5,16.848,91.9,42.073l-40.355,35.5S135,60,115,60H100c-40,0-39,40-39,40s-1,12.5-1,25,1,25,1,25-1,40,39,40h15c20,0,36.547-17.2,36.547-17.2l40.389,35.073C174.89,232.95,137.334,250,100,250,44.772,250,0,196.024,0,150V100C0,53.976,44.772,0,100,0Z" transform="translate(494 86)"/>
  </g>
</svg>
